<mxfile host="app.diagrams.net" agent="Mozilla/5.0 (Windows NT 10.0; Win64; x64) AppleWebKit/537.36 (KHTML, like Gecko) Chrome/131.0.0.0 Safari/537.36" version="24.8.6">
  <diagram name="Сторінка-1" id="r71vQhJ-cfuor7uJI2X-">
    <mxGraphModel dx="1432" dy="820" grid="1" gridSize="10" guides="1" tooltips="1" connect="1" arrows="1" fold="1" page="1" pageScale="1" pageWidth="827" pageHeight="1169" math="0" shadow="0">
      <root>
        <mxCell id="0" />
        <mxCell id="1" parent="0" />
        <mxCell id="lIhwq7egRwJM2C_CwDgb-10" style="edgeStyle=orthogonalEdgeStyle;rounded=0;orthogonalLoop=1;jettySize=auto;html=1;" edge="1" parent="1" source="lIhwq7egRwJM2C_CwDgb-1" target="lIhwq7egRwJM2C_CwDgb-2">
          <mxGeometry relative="1" as="geometry" />
        </mxCell>
        <mxCell id="lIhwq7egRwJM2C_CwDgb-1" value="start" style="ellipse;whiteSpace=wrap;html=1;" vertex="1" parent="1">
          <mxGeometry x="330" y="20" width="120" height="80" as="geometry" />
        </mxCell>
        <mxCell id="lIhwq7egRwJM2C_CwDgb-11" style="edgeStyle=orthogonalEdgeStyle;rounded=0;orthogonalLoop=1;jettySize=auto;html=1;" edge="1" parent="1" source="lIhwq7egRwJM2C_CwDgb-2" target="lIhwq7egRwJM2C_CwDgb-3">
          <mxGeometry relative="1" as="geometry" />
        </mxCell>
        <mxCell id="lIhwq7egRwJM2C_CwDgb-2" value="&amp;nbsp; int n;" style="rounded=0;whiteSpace=wrap;html=1;" vertex="1" parent="1">
          <mxGeometry x="330" y="150" width="120" height="60" as="geometry" />
        </mxCell>
        <mxCell id="lIhwq7egRwJM2C_CwDgb-12" style="edgeStyle=orthogonalEdgeStyle;rounded=0;orthogonalLoop=1;jettySize=auto;html=1;entryX=0.5;entryY=0;entryDx=0;entryDy=0;" edge="1" parent="1" source="lIhwq7egRwJM2C_CwDgb-3" target="lIhwq7egRwJM2C_CwDgb-4">
          <mxGeometry relative="1" as="geometry" />
        </mxCell>
        <mxCell id="lIhwq7egRwJM2C_CwDgb-3" value="cin &amp;gt;&amp;gt; n;" style="shape=parallelogram;perimeter=parallelogramPerimeter;whiteSpace=wrap;html=1;fixedSize=1;" vertex="1" parent="1">
          <mxGeometry x="330" y="260" width="120" height="60" as="geometry" />
        </mxCell>
        <mxCell id="lIhwq7egRwJM2C_CwDgb-13" style="edgeStyle=orthogonalEdgeStyle;rounded=0;orthogonalLoop=1;jettySize=auto;html=1;" edge="1" parent="1" source="lIhwq7egRwJM2C_CwDgb-4" target="lIhwq7egRwJM2C_CwDgb-5">
          <mxGeometry relative="1" as="geometry" />
        </mxCell>
        <mxCell id="lIhwq7egRwJM2C_CwDgb-4" value="&lt;div&gt;&lt;br&gt;&lt;/div&gt;&lt;div&gt;&amp;nbsp; &amp;nbsp; string s;&lt;/div&gt;" style="rounded=0;whiteSpace=wrap;html=1;" vertex="1" parent="1">
          <mxGeometry x="330" y="380" width="120" height="60" as="geometry" />
        </mxCell>
        <mxCell id="lIhwq7egRwJM2C_CwDgb-14" style="edgeStyle=orthogonalEdgeStyle;rounded=0;orthogonalLoop=1;jettySize=auto;html=1;" edge="1" parent="1" source="lIhwq7egRwJM2C_CwDgb-5" target="lIhwq7egRwJM2C_CwDgb-6">
          <mxGeometry relative="1" as="geometry" />
        </mxCell>
        <mxCell id="lIhwq7egRwJM2C_CwDgb-5" value="&amp;nbsp;cin &amp;gt;&amp;gt; s;" style="shape=parallelogram;perimeter=parallelogramPerimeter;whiteSpace=wrap;html=1;fixedSize=1;" vertex="1" parent="1">
          <mxGeometry x="330" y="500" width="120" height="60" as="geometry" />
        </mxCell>
        <mxCell id="lIhwq7egRwJM2C_CwDgb-15" style="edgeStyle=orthogonalEdgeStyle;rounded=0;orthogonalLoop=1;jettySize=auto;html=1;entryX=0.5;entryY=0;entryDx=0;entryDy=0;" edge="1" parent="1" source="lIhwq7egRwJM2C_CwDgb-6" target="lIhwq7egRwJM2C_CwDgb-7">
          <mxGeometry relative="1" as="geometry" />
        </mxCell>
        <mxCell id="lIhwq7egRwJM2C_CwDgb-6" value="&amp;nbsp;int kolya_games = 0," style="rounded=0;whiteSpace=wrap;html=1;" vertex="1" parent="1">
          <mxGeometry x="330" y="620" width="120" height="60" as="geometry" />
        </mxCell>
        <mxCell id="lIhwq7egRwJM2C_CwDgb-16" style="edgeStyle=orthogonalEdgeStyle;rounded=0;orthogonalLoop=1;jettySize=auto;html=1;" edge="1" parent="1" source="lIhwq7egRwJM2C_CwDgb-7" target="lIhwq7egRwJM2C_CwDgb-8">
          <mxGeometry relative="1" as="geometry" />
        </mxCell>
        <mxCell id="lIhwq7egRwJM2C_CwDgb-7" value="vasya_games = 0;" style="rounded=0;whiteSpace=wrap;html=1;" vertex="1" parent="1">
          <mxGeometry x="330" y="730" width="120" height="60" as="geometry" />
        </mxCell>
        <mxCell id="lIhwq7egRwJM2C_CwDgb-17" style="edgeStyle=orthogonalEdgeStyle;rounded=0;orthogonalLoop=1;jettySize=auto;html=1;entryX=0.5;entryY=0;entryDx=0;entryDy=0;" edge="1" parent="1" source="lIhwq7egRwJM2C_CwDgb-8" target="lIhwq7egRwJM2C_CwDgb-9">
          <mxGeometry relative="1" as="geometry" />
        </mxCell>
        <mxCell id="lIhwq7egRwJM2C_CwDgb-8" value="&amp;nbsp;int kolya_points = 0," style="rounded=0;whiteSpace=wrap;html=1;" vertex="1" parent="1">
          <mxGeometry x="330" y="830" width="120" height="60" as="geometry" />
        </mxCell>
        <mxCell id="lIhwq7egRwJM2C_CwDgb-19" style="edgeStyle=orthogonalEdgeStyle;rounded=0;orthogonalLoop=1;jettySize=auto;html=1;" edge="1" parent="1" source="lIhwq7egRwJM2C_CwDgb-9" target="lIhwq7egRwJM2C_CwDgb-18">
          <mxGeometry relative="1" as="geometry" />
        </mxCell>
        <mxCell id="lIhwq7egRwJM2C_CwDgb-9" value="vasya_points = 0;" style="rounded=0;whiteSpace=wrap;html=1;" vertex="1" parent="1">
          <mxGeometry x="330" y="930" width="120" height="60" as="geometry" />
        </mxCell>
        <mxCell id="lIhwq7egRwJM2C_CwDgb-20" style="edgeStyle=orthogonalEdgeStyle;rounded=0;orthogonalLoop=1;jettySize=auto;html=1;" edge="1" parent="1" source="lIhwq7egRwJM2C_CwDgb-18" target="lIhwq7egRwJM2C_CwDgb-21">
          <mxGeometry relative="1" as="geometry">
            <mxPoint x="390" y="1220" as="targetPoint" />
          </mxGeometry>
        </mxCell>
        <mxCell id="lIhwq7egRwJM2C_CwDgb-18" value="start for" style="ellipse;whiteSpace=wrap;html=1;" vertex="1" parent="1">
          <mxGeometry x="330" y="1050" width="120" height="80" as="geometry" />
        </mxCell>
        <mxCell id="lIhwq7egRwJM2C_CwDgb-22" style="edgeStyle=orthogonalEdgeStyle;rounded=0;orthogonalLoop=1;jettySize=auto;html=1;" edge="1" parent="1" source="lIhwq7egRwJM2C_CwDgb-21" target="lIhwq7egRwJM2C_CwDgb-23">
          <mxGeometry relative="1" as="geometry">
            <mxPoint x="390" y="1330" as="targetPoint" />
          </mxGeometry>
        </mxCell>
        <mxCell id="lIhwq7egRwJM2C_CwDgb-25" style="edgeStyle=orthogonalEdgeStyle;rounded=0;orthogonalLoop=1;jettySize=auto;html=1;" edge="1" parent="1" source="lIhwq7egRwJM2C_CwDgb-21" target="lIhwq7egRwJM2C_CwDgb-26">
          <mxGeometry relative="1" as="geometry">
            <mxPoint x="400" y="1480" as="targetPoint" />
            <Array as="points">
              <mxPoint x="540" y="1220" />
              <mxPoint x="540" y="1221" />
              <mxPoint x="630" y="1221" />
              <mxPoint x="630" y="1481" />
            </Array>
          </mxGeometry>
        </mxCell>
        <mxCell id="lIhwq7egRwJM2C_CwDgb-21" value="int i = 0; i &lt; n; ++i" style="rhombus;whiteSpace=wrap;html=1;" vertex="1" parent="1">
          <mxGeometry x="350" y="1180" width="80" height="80" as="geometry" />
        </mxCell>
        <mxCell id="lIhwq7egRwJM2C_CwDgb-24" style="edgeStyle=orthogonalEdgeStyle;rounded=0;orthogonalLoop=1;jettySize=auto;html=1;entryX=0;entryY=0.5;entryDx=0;entryDy=0;" edge="1" parent="1" source="lIhwq7egRwJM2C_CwDgb-23" target="lIhwq7egRwJM2C_CwDgb-21">
          <mxGeometry relative="1" as="geometry">
            <mxPoint x="200" y="1220" as="targetPoint" />
            <Array as="points">
              <mxPoint x="260" y="1350" />
              <mxPoint x="260" y="1351" />
              <mxPoint x="160" y="1351" />
              <mxPoint x="160" y="1220" />
            </Array>
          </mxGeometry>
        </mxCell>
        <mxCell id="lIhwq7egRwJM2C_CwDgb-23" value="if (s[i] == &#39;K&#39;) {&#xa;    kolya_points++;&#xa;}&#xa;else {&#xa;    vasya_points++;&#xa;}" style="rounded=0;whiteSpace=wrap;html=1;" vertex="1" parent="1">
          <mxGeometry x="315" y="1300" width="150" height="100" as="geometry" />
        </mxCell>
        <mxCell id="lIhwq7egRwJM2C_CwDgb-27" style="edgeStyle=orthogonalEdgeStyle;rounded=0;orthogonalLoop=1;jettySize=auto;html=1;" edge="1" parent="1" source="lIhwq7egRwJM2C_CwDgb-26" target="lIhwq7egRwJM2C_CwDgb-28">
          <mxGeometry relative="1" as="geometry">
            <mxPoint x="400" y="1640" as="targetPoint" />
          </mxGeometry>
        </mxCell>
        <mxCell id="lIhwq7egRwJM2C_CwDgb-26" value="end for" style="ellipse;whiteSpace=wrap;html=1;" vertex="1" parent="1">
          <mxGeometry x="340" y="1440" width="120" height="80" as="geometry" />
        </mxCell>
        <mxCell id="lIhwq7egRwJM2C_CwDgb-31" style="edgeStyle=orthogonalEdgeStyle;rounded=0;orthogonalLoop=1;jettySize=auto;html=1;" edge="1" parent="1" source="lIhwq7egRwJM2C_CwDgb-28" target="lIhwq7egRwJM2C_CwDgb-32">
          <mxGeometry relative="1" as="geometry">
            <mxPoint x="400" y="1630" as="targetPoint" />
          </mxGeometry>
        </mxCell>
        <mxCell id="lIhwq7egRwJM2C_CwDgb-33" style="edgeStyle=orthogonalEdgeStyle;rounded=0;orthogonalLoop=1;jettySize=auto;html=1;" edge="1" parent="1" source="lIhwq7egRwJM2C_CwDgb-28" target="lIhwq7egRwJM2C_CwDgb-37">
          <mxGeometry relative="1" as="geometry">
            <mxPoint x="280" y="1720" as="targetPoint" />
          </mxGeometry>
        </mxCell>
        <mxCell id="lIhwq7egRwJM2C_CwDgb-28" value="if" style="rhombus;whiteSpace=wrap;html=1;" vertex="1" parent="1">
          <mxGeometry x="240" y="1590" width="80" height="80" as="geometry" />
        </mxCell>
        <mxCell id="lIhwq7egRwJM2C_CwDgb-38" style="edgeStyle=orthogonalEdgeStyle;rounded=0;orthogonalLoop=1;jettySize=auto;html=1;" edge="1" parent="1" source="lIhwq7egRwJM2C_CwDgb-32" target="lIhwq7egRwJM2C_CwDgb-39">
          <mxGeometry relative="1" as="geometry">
            <mxPoint x="470" y="1700" as="targetPoint" />
          </mxGeometry>
        </mxCell>
        <mxCell id="lIhwq7egRwJM2C_CwDgb-32" value="else if" style="rhombus;whiteSpace=wrap;html=1;" vertex="1" parent="1">
          <mxGeometry x="430" y="1590" width="80" height="80" as="geometry" />
        </mxCell>
        <mxCell id="lIhwq7egRwJM2C_CwDgb-34" value="yes" style="text;html=1;align=center;verticalAlign=middle;resizable=0;points=[];autosize=1;strokeColor=none;fillColor=none;" vertex="1" parent="1">
          <mxGeometry x="220" y="1678" width="40" height="30" as="geometry" />
        </mxCell>
        <mxCell id="lIhwq7egRwJM2C_CwDgb-35" value="no" style="text;html=1;align=center;verticalAlign=middle;resizable=0;points=[];autosize=1;strokeColor=none;fillColor=none;" vertex="1" parent="1">
          <mxGeometry x="320" y="1588" width="40" height="30" as="geometry" />
        </mxCell>
        <mxCell id="lIhwq7egRwJM2C_CwDgb-43" style="edgeStyle=orthogonalEdgeStyle;rounded=0;orthogonalLoop=1;jettySize=auto;html=1;" edge="1" parent="1" source="lIhwq7egRwJM2C_CwDgb-37" target="lIhwq7egRwJM2C_CwDgb-42">
          <mxGeometry relative="1" as="geometry" />
        </mxCell>
        <mxCell id="lIhwq7egRwJM2C_CwDgb-37" value="&lt;div&gt;&amp;nbsp;kolya_games++;&lt;/div&gt;&lt;div&gt;&amp;nbsp;kolya_points = 0;&lt;/div&gt;&lt;div&gt;&amp;nbsp;vasya_points = 0;&lt;/div&gt;" style="rounded=0;whiteSpace=wrap;html=1;" vertex="1" parent="1">
          <mxGeometry x="220" y="1690" width="120" height="60" as="geometry" />
        </mxCell>
        <mxCell id="lIhwq7egRwJM2C_CwDgb-44" style="edgeStyle=orthogonalEdgeStyle;rounded=0;orthogonalLoop=1;jettySize=auto;html=1;" edge="1" parent="1" source="lIhwq7egRwJM2C_CwDgb-39" target="lIhwq7egRwJM2C_CwDgb-42">
          <mxGeometry relative="1" as="geometry" />
        </mxCell>
        <mxCell id="lIhwq7egRwJM2C_CwDgb-39" value="&lt;div&gt;vasya_games++;&lt;/div&gt;&lt;div&gt;kolya_points = 0;&lt;/div&gt;&lt;div&gt;vasya_points = 0;&lt;/div&gt;" style="rounded=0;whiteSpace=wrap;html=1;" vertex="1" parent="1">
          <mxGeometry x="410" y="1690" width="120" height="60" as="geometry" />
        </mxCell>
        <mxCell id="lIhwq7egRwJM2C_CwDgb-45" style="edgeStyle=orthogonalEdgeStyle;rounded=0;orthogonalLoop=1;jettySize=auto;html=1;" edge="1" parent="1" source="lIhwq7egRwJM2C_CwDgb-42" target="lIhwq7egRwJM2C_CwDgb-46">
          <mxGeometry relative="1" as="geometry">
            <mxPoint x="370" y="1990" as="targetPoint" />
          </mxGeometry>
        </mxCell>
        <mxCell id="lIhwq7egRwJM2C_CwDgb-42" value="cout &amp;lt;&amp;lt; kolya_games &amp;lt;&amp;lt; &quot;:&quot; &amp;lt;&amp;lt; vasya_games &amp;lt;&amp;lt; endl;" style="shape=parallelogram;perimeter=parallelogramPerimeter;whiteSpace=wrap;html=1;fixedSize=1;" vertex="1" parent="1">
          <mxGeometry x="310" y="1830" width="120" height="60" as="geometry" />
        </mxCell>
        <mxCell id="lIhwq7egRwJM2C_CwDgb-47" style="edgeStyle=orthogonalEdgeStyle;rounded=0;orthogonalLoop=1;jettySize=auto;html=1;" edge="1" parent="1" source="lIhwq7egRwJM2C_CwDgb-46" target="lIhwq7egRwJM2C_CwDgb-48">
          <mxGeometry relative="1" as="geometry">
            <mxPoint x="370" y="2110" as="targetPoint" />
          </mxGeometry>
        </mxCell>
        <mxCell id="lIhwq7egRwJM2C_CwDgb-46" value="&amp;nbsp;cout &amp;lt;&amp;lt; kolya_points &amp;lt;&amp;lt; &quot;:&quot; &amp;lt;&amp;lt; vasya_points &amp;lt;&amp;lt; endl;" style="shape=parallelogram;perimeter=parallelogramPerimeter;whiteSpace=wrap;html=1;fixedSize=1;" vertex="1" parent="1">
          <mxGeometry x="310" y="1960" width="120" height="60" as="geometry" />
        </mxCell>
        <mxCell id="lIhwq7egRwJM2C_CwDgb-48" value="end" style="ellipse;whiteSpace=wrap;html=1;" vertex="1" parent="1">
          <mxGeometry x="310" y="2070" width="120" height="80" as="geometry" />
        </mxCell>
      </root>
    </mxGraphModel>
  </diagram>
</mxfile>
